<svg width="611" height="733" viewBox="0 0 611 733" fill="none" xmlns="http://www.w3.org/2000/svg">
<path d="M440.136 21.5386C440.136 21.5386 466.582 21.2492 472.173 33.3558C475.49 40.5382 464.667 51.1148 472.173 53.6139C474.672 54.4459 476.336 53.0906 478.917 53.6139C487.702 55.3949 490.534 63.4182 492.407 72.1838C493.371 76.6969 494.806 80.0586 492.407 84.001C490.694 86.8149 488.038 86.7847 485.662 89.0656C479.704 94.7843 483.468 105.306 475.545 107.635C472.386 108.564 469.173 110.205 467.114 107.635C465.466 105.577 467.839 103.418 467.114 100.883C464.81 92.8195 460.134 114.294 451.939 116.076C448.722 116.776 446.582 114.896 443.508 116.076C435.508 119.15 435.157 136.098 443.508 138.023C445.433 138.466 446.717 137.33 448.567 138.023C453.506 139.873 445.684 147.112 448.567 151.528C450.367 154.286 453.609 153.773 455.311 156.593C459.468 163.479 446.247 165.911 443.508 173.474C439.916 183.392 439.418 190.762 443.508 200.485L443.57 200.633C445.023 204.088 445.918 206.216 448.567 208.926C456.851 217.403 467.933 204.474 478.917 208.926C487.595 212.443 490.475 217.89 497.465 224.119C507.204 232.799 526.653 235.963 521.071 247.754C518.023 254.194 508.946 251.444 505.896 257.883C503.356 263.245 503.606 267.603 505.896 273.077C507.524 276.969 511.234 277.539 512.641 281.517C516.114 291.342 493.992 293.639 497.465 303.464C498.872 307.442 502.66 307.98 504.21 311.905C506.146 316.81 502.958 320.286 504.21 325.41C506.119 333.224 511.234 335.821 516.013 342.292C520.477 348.335 523.013 351.707 527.816 357.485C535.268 366.45 541.739 369.63 548.05 379.431C552.039 385.627 549.729 393.36 556.481 396.313C560.704 398.16 563.807 395.214 568.284 396.313C578.7 398.872 576.813 412.739 586.831 416.571C594.827 419.629 604.689 409.036 608.752 416.571C610.942 420.633 612.017 425.127 608.752 428.388C605.49 431.646 600.839 425.916 596.948 428.388C590.828 432.279 594.639 440.084 596.948 446.958C599.342 454.081 607.418 454.758 608.752 462.152C611.56 477.718 570.235 476.16 568.284 460.464C568.04 458.501 568.593 457.353 568.284 455.399C566.33 443.042 540.577 443.661 536.247 455.399C534.65 459.729 532.239 464.929 536.247 467.216C538.534 468.522 541.128 465.355 542.991 467.216C544.857 469.08 544.857 472.106 542.991 473.969C541.128 475.831 538.693 472.992 536.247 473.969C530.125 476.415 540.911 486.192 536.247 490.851C531.588 495.504 521.279 497.157 519.385 490.851C518.816 488.957 520.271 487.555 519.385 485.786C517.617 482.253 511.037 482.253 509.268 485.786C508.383 487.555 509.963 488.999 509.268 490.851C507.417 495.783 500.352 488.236 495.779 490.851C493.352 492.239 492.201 493.544 490.721 495.915C487.228 501.507 488.505 506.588 490.721 512.797C492.012 516.417 493.843 517.918 495.779 521.238C499.197 527.1 503.102 529.737 504.21 536.432C504.748 539.684 503.026 541.796 504.21 544.872C506.539 550.926 513.792 548.339 519.385 551.625C525.861 555.43 532.892 556.119 534.561 563.442C535.146 566.014 536.671 568.614 534.561 570.195C532.98 571.379 531.083 569.011 529.502 570.195C527.392 571.776 531.861 575.77 529.502 576.948C528.324 577.536 527.435 577.124 526.13 576.948C518.513 575.919 516.013 560.066 516.013 560.066C516.013 560.066 507.185 548.603 499.151 548.249C490.571 547.871 480.604 560.066 480.604 560.066H475.545C469.026 561.013 458.1 564.927 462.056 570.195C465.219 574.408 472.751 565.729 475.545 570.195C477.294 572.989 475.545 575.34 475.545 578.636C475.545 581.932 473.327 584.638 475.545 587.077C477.372 589.085 480.463 586.756 482.29 588.765C484.508 591.204 481.632 593.976 482.29 597.206C484.447 607.793 500.62 603.897 504.21 614.088C506.4 620.306 497.894 629.077 504.21 630.969C506.102 631.536 507.337 630.556 509.268 630.969C518.294 632.901 517.753 650.972 509.268 654.604C505.636 656.159 501.682 651.57 499.151 654.604C495.855 658.555 507.376 658.26 509.268 663.045C512.306 670.724 506.518 677.881 499.151 681.615C493.278 684.591 484.184 675.308 482.29 681.615C481.721 683.509 482.916 684.803 482.29 686.679C480.414 692.301 470.404 681.75 467.114 686.679C464.918 689.969 467.628 692.886 467.114 696.808C464.077 720.001 435.57 742.47 416.53 728.883C411.584 725.355 409.27 722.428 406.413 717.066C400.212 705.43 419.453 685.256 406.413 683.303C404.459 683.01 401.354 683.303 401.354 683.303C397.815 681.535 399.991 676.887 401.354 673.174C402.49 670.081 406.616 669.71 406.413 666.421C406.117 661.636 399.056 664.837 394.61 663.045C382.012 657.968 370.579 627.841 367.631 641.098C366.916 644.316 369.743 647.008 367.631 649.539C365.1 652.573 361.222 648.176 357.514 649.539C354.423 650.676 352.644 651.895 350.769 654.604C347.393 659.483 353.312 664.436 350.769 669.797C345.408 681.102 321.313 657.555 318.732 669.797C318.189 672.378 320.843 674.969 318.732 676.55C317.151 677.734 315.072 675.154 313.674 676.55C312.275 677.948 314.243 679.72 313.674 681.615C311.78 687.921 298.707 687.921 296.812 681.615V676.55C294.995 672.314 289.218 674.67 285.009 676.55C278.814 679.318 282.996 689.54 276.579 691.744C268.195 694.622 268.366 678.489 259.717 676.55C255.862 675.686 249.6 676.55 249.6 676.55V673.174C248.376 670.117 243.7 675.28 241.169 673.174C238.129 670.643 244.708 664.812 241.169 663.045C239.402 662.162 237.508 664.441 236.111 663.045C234.711 661.647 236.455 659.928 236.111 657.98C234.163 646.957 214.567 666.617 207.446 657.98C201.574 650.859 207.446 634.346 207.446 634.346H210.818C222.613 633.037 199.113 605.907 210.818 603.959C212.767 603.634 213.952 604.402 215.877 603.959C224.228 602.034 208.094 585.6 215.877 582.012C219.465 580.358 222.363 583.569 225.994 582.012C229.419 580.543 230.644 578.343 232.738 575.26C239.037 565.989 238.058 556.426 232.738 546.561C230.736 542.847 230.046 539.297 225.994 538.12C221.994 536.958 219.561 539.553 215.877 541.496C208.036 545.632 208.952 555.135 200.701 558.378C193.96 561.027 187.029 563.735 182.154 558.378C177.716 553.502 186.176 546.719 182.154 541.496C176.931 534.714 167.327 546.288 160.234 541.496C155.081 538.016 156.955 531.471 151.803 527.991C144.709 523.199 137.783 531.287 129.883 527.991C120.383 524.027 121.274 513.885 113.021 507.733C108.764 504.559 106.528 501.036 101.218 500.98C90.487 500.866 97.2015 517.31 96.1597 527.991C95.0077 539.802 98.337 546.712 96.1597 558.378C94.897 565.143 96.2957 570.745 91.1012 575.26C81.7545 583.384 79.2177 558.84 77.612 546.561C76.9281 541.331 78.3366 538.279 77.612 533.055C75.6241 518.723 61.7071 515.206 59.0643 500.98C57.6193 493.202 51.3886 482.638 59.0643 480.722C60.9809 480.243 62.1714 481.03 64.1227 480.722C76.496 478.771 52.5761 453.503 64.1227 448.647C68.9787 446.604 74.8176 453.112 77.612 448.647C79.3605 445.852 75.8634 443 77.612 440.206C80.4063 435.74 91.1012 440.206 91.1012 440.206V403.066C91.1012 389.591 86.2202 404.927 84.3566 403.066C82.4908 401.202 84.8506 398.904 84.3566 396.313C81.7662 382.73 60.614 403.737 48.9473 396.313C37.7563 389.192 36.8073 378.839 33.7719 365.926C30.7546 353.09 33.7719 345.348 33.7719 332.163C33.7719 328.207 34.6003 325.901 33.7719 322.034C32.0046 313.782 22.7286 313.228 20.2826 305.152C18.3718 298.842 26.1808 291.216 20.2826 288.27C17.3371 286.799 14.7974 289.741 11.8518 288.27C5.95372 285.325 14.0985 277.586 11.8518 271.388C9.46482 264.803 0.804282 264.847 0.048748 257.883C-0.818937 249.886 10.1621 248.866 11.8518 241.001C13.6994 232.402 7.64507 227.809 6.79338 219.055C6.15496 212.493 4.51169 208.359 6.79338 202.173C9.86104 193.857 15.0058 188.918 23.6549 186.98C27.5102 186.115 30.0981 188.433 33.7719 186.98C38.5574 185.086 37.4878 178.914 42.2027 176.851C46.4254 175.003 49.5885 175.534 54.0058 176.851C58.558 178.208 66.245 179.354 64.1227 183.603C63.0616 185.728 60.8688 185.435 59.0643 186.98C46.4523 197.773 63.5212 212.595 64.1227 229.184C64.3855 236.431 62.2515 240.747 64.1227 247.754C67.2578 259.493 80.8793 259.746 84.3566 271.388C86.8095 279.6 77.055 288.847 84.3566 293.335C88.8445 296.093 92.8236 291.745 97.8459 293.335C104.523 295.448 104.801 302.632 111.335 305.152C127.197 311.269 129.952 282.482 146.744 279.829C152.598 278.904 156.066 278.904 161.92 279.829C178.712 282.482 187.44 318.98 197.329 305.152C203.082 297.108 193.559 288.971 197.329 279.829C198.794 276.277 202.783 275.211 202.388 271.388C202.049 268.111 198.339 267.772 197.329 264.636C194.743 256.603 208.678 255.917 210.818 247.754L210.824 247.732C212.159 242.642 213.117 238.987 210.818 234.249C207.605 227.623 196.909 232.554 193.957 225.808C192.107 221.58 195.03 218.479 193.957 213.99C191.994 205.783 182.607 205.272 180.468 197.109C179.13 192.007 177.983 188.256 180.468 183.603C185.12 174.89 203.212 193.146 205.76 183.603C206.44 181.055 205.187 179.425 205.76 176.851C208.334 165.281 224.602 174.016 236.111 176.851C245.267 179.105 248.713 185.531 258.031 186.98C263.236 187.789 267.581 183.482 271.52 186.98C275.957 190.919 268.745 196.929 271.52 202.173C273.263 205.468 278.265 208.926 278.265 208.926C286.403 214.863 299.098 223.023 303.557 213.99C305.6 209.852 302.509 206.668 303.557 202.173C305.176 195.231 310.513 193.369 313.674 186.98C317.65 178.943 319.515 173.954 320.419 165.033C321.774 151.656 314.915 144.658 313.674 131.27C312.579 119.454 307.626 111.093 313.674 100.883C320.904 88.6768 333.578 90.5852 347.397 87.3774C367.923 82.6128 392.9 106.679 401.354 87.3774C405.057 78.923 399.617 72.8079 401.354 63.743C403.85 50.7155 420.639 45.9677 416.53 33.3558C414.773 27.9657 410.038 26.8658 408.099 21.5386C405.619 14.7239 404.462 9.24289 408.099 2.9687C415.351 -9.54253 440.136 21.5386 440.136 21.5386Z" fill="#E0E261"/>
</svg>
